<?xml version="1.0" encoding="UTF-8"?>
<svg xmlns="http://www.w3.org/2000/svg" width="1200" height="675" viewBox="0 0 1200 675" role="img"><title>Linkaufbau-Roadmap</title><desc>Authored diagram. Not AI-generated.</desc><rect width="1200" height="675" fill="#f4f8f8"/><text x="56" y="64" fill="#1c2430" font-family="Segoe UI, Arial, sans-serif" font-size="32" font-weight="700" text-anchor="start">Linkaufbau-Roadmap</text><rect x="56" y="82" width="64" height="6" rx="3" fill="#3aa8ad"/><rect x="62" y="140" width="340" height="460" rx="20" fill="#ffffff" stroke="#d5e3e4"/><rect x="62" y="140" width="340" height="78" rx="20" fill="#e7f6f6"/><rect x="62" y="198" width="340" height="20" fill="#e7f6f6"/><text x="86" y="188" fill="#3aa8ad" font-family="Segoe UI, Arial, sans-serif" font-size="22" font-weight="700" text-anchor="start">Einsteiger</text><circle cx="98" cy="265" r="6" fill="#3aa8ad"/><text x="118" y="270" fill="#1c2430" font-family="Segoe UI, Arial, sans-serif" font-size="18" font-weight="600" text-anchor="start">Eigene starke Seiten</text><circle cx="98" cy="317" r="6" fill="#3aa8ad"/><text x="118" y="322" fill="#1c2430" font-family="Segoe UI, Arial, sans-serif" font-size="18" font-weight="600" text-anchor="start">Wenige passende Hosts</text><circle cx="98" cy="369" r="6" fill="#3aa8ad"/><text x="118" y="374" fill="#1c2430" font-family="Segoe UI, Arial, sans-serif" font-size="18" font-weight="600" text-anchor="start">Anker abwechseln</text><rect x="430" y="140" width="340" height="460" rx="20" fill="#ffffff" stroke="#d5e3e4"/><rect x="430" y="140" width="340" height="78" rx="20" fill="#dff3ea"/><rect x="430" y="198" width="340" height="20" fill="#dff3ea"/><text x="454" y="188" fill="#2f9e6b" font-family="Segoe UI, Arial, sans-serif" font-size="22" font-weight="700" text-anchor="start">Mittelstufe</text><circle cx="466" cy="265" r="6" fill="#2f9e6b"/><text x="486" y="270" fill="#1c2430" font-family="Segoe UI, Arial, sans-serif" font-size="18" font-weight="600" text-anchor="start">Gastbeiträge</text><circle cx="466" cy="317" r="6" fill="#2f9e6b"/><text x="486" y="322" fill="#1c2430" font-family="Segoe UI, Arial, sans-serif" font-size="18" font-weight="600" text-anchor="start">Digital PR</text><circle cx="466" cy="369" r="6" fill="#2f9e6b"/><text x="486" y="374" fill="#1c2430" font-family="Segoe UI, Arial, sans-serif" font-size="18" font-weight="600" text-anchor="start">Live-URL prüfen</text><rect x="798" y="140" width="340" height="460" rx="20" fill="#ffffff" stroke="#d5e3e4"/><rect x="798" y="140" width="340" height="78" rx="20" fill="#e8eef8"/><rect x="798" y="198" width="340" height="20" fill="#e8eef8"/><text x="822" y="188" fill="#3d6fbf" font-family="Segoe UI, Arial, sans-serif" font-size="22" font-weight="700" text-anchor="start">Fortgeschritten</text><circle cx="834" cy="265" r="6" fill="#3d6fbf"/><text x="854" y="270" fill="#1c2430" font-family="Segoe UI, Arial, sans-serif" font-size="18" font-weight="600" text-anchor="start">Themencluster</text><circle cx="834" cy="317" r="6" fill="#3d6fbf"/><text x="854" y="322" fill="#1c2430" font-family="Segoe UI, Arial, sans-serif" font-size="18" font-weight="600" text-anchor="start">Neue Domains</text><circle cx="834" cy="369" r="6" fill="#3d6fbf"/><text x="854" y="374" fill="#1c2430" font-family="Segoe UI, Arial, sans-serif" font-size="18" font-weight="600" text-anchor="start">Qualität vor Menge</text></svg>