<svg xmlns="http://www.w3.org/2000/svg" viewBox="0 0 60 25" role="img" aria-label="Stripe"><title>Stripe</title><path fill="#635BFF" d="M59.64 14.28h-8.06c.19 1.93 1.6 2.55 3.2 2.55 1.64 0 2.96-.37 4.05-.95v3.32a8.33 8.33 0 0 1-4.56 1.1c-4.01 0-6.83-2.5-6.83-7.48 0-4.61 2.66-7.81 6.67-7.81 3.96 0 5.97 3.23 5.97 7.51 0 .5-.04 1.16-.11 1.76h.67zm-5.92-5.62c-1.31 0-2.17 1.09-2.17 2.91h4.25c0-1.83-.84-2.91-2.08-2.91zm-24.22-2.6l-3.47 13.36h-4.06l1.65-6.28c.4-1.55.6-2.8.6-2.8h.06s.2 1.23.58 2.76l1.7 6.32h-4.06L17.1 6.06h4.18l-.3 8.93h.07l3.9-8.93h3.55zm-12.1 1.63c-1.48-.55-3.46-.9-5.5-.9C6.89 5.39 2 8.72 2 13.96c0 4.12 2.78 7.26 7.5 7.26 2.12 0 3.72-.4 4.87-.84v-3.55c-1.12.45-2.57.82-4.28.82-2.57 0-3.84-1.57-3.84-3.7 0-3.47 3.12-5.13 6.12-5.13 1.45 0 2.58.25 3.33.54l.7-4.07zm36.63-.1c-1.48-.55-3.46-.9-5.5-.9-5.03 0-9.92 3.33-9.92 8.57 0 4.12 2.78 7.26 7.5 7.26 2.12 0 3.72-.4 4.87-.84v-3.55c-1.12.45-2.57.82-4.28.82-2.57 0-3.84-1.57-3.84-3.7 0-3.47 3.12-5.13 6.12-5.13 1.45 0 2.58.25 3.33.54l.72-4.07z"/></svg>