<svg xmlns="http://www.w3.org/2000/svg" viewBox="0 0 750 471" role="img" aria-label="Visa">
  <title>Visa</title>
  <rect width="750" height="471" rx="40" fill="#1A1F71"/>
  <path fill="#FFFFFF" d="M278.2 334.3l33.1-195.1h52.9l-33.1 195.1h-52.9zm245.4-191.1c-10.5-3.9-26.9-8.1-47.4-8.1-52.3 0-89.1 27.9-89.4 67.8-.3 29.5 27.8 45.9 49 55.7 21.7 10 29 16.5 28.9 25.5-.2 13.7-16.4 20-31.6 20-21.1 0-32.3-2.9-49.6-10.1l-6.8-3.1-7.4 43.4c12.3 5.4 35.1 10.1 58.7 10.3 55.4 0 91.4-27.5 91.8-70.1.2-23.4-14.7-41.2-47-55.9-19.6-9.5-31.6-15.9-31.5-25.5 0-8.6 10.2-17.7 32.1-17.7 18.3-.3 31.5 3.7 41.8 7.9l5 2.4 7.6-41.5zm137.1-.1h-41c-12.7 0-22.2 3.5-27.8 16.2l-78.8 178.9h55.5s9.1-23.9 11.1-29.1c6.1 0 59.9.1 67.6.1 1.6 6.8 6.4 29 6.4 29h49.1l-42.1-195.1zm-66.3 125.8c4.4-11.2 21.1-54.3 21.1-54.3-.3.5 4.4-11.3 7.1-18.6l3.6 17s10.3 47.1 12.4 55.9h-44.2zm-192.5-125.8l-51.6 195.1h-52.9l-25.4-123.7c-1.6-6.2-2.9-8.5-7.7-11.1-8-4.3-21.2-8.3-32.8-10.8l.8-3.7h84.6c10.8 0 20.5 7.2 23 19.6l21 111.5 51.9-131.1h55.1z"/>
  <path fill="#F9A51A" d="M54.1 139.2h50.9c7.1 0 13.1 2.1 16.8 9.8l50.9 121.9-21.1-.1L143 246.9H87.3l-13.5 38.9H40.5l46.1-146.6c2.9-8.5 8.1-9.9 16.5-9.9l-49 0z"/>
</svg>
